<svg width="100%" viewBox="0 0 680 862" xmlns="http://www.w3.org/2000/svg" font-family="sans-serif">
<text font-size="16" font-weight="500" fill="#1a1a1a" x="340" y="36" text-anchor="middle">Языки в репозитории ios-system-keyboard</text>
<rect x="24" y="52" width="76" height="28" rx="4" fill="#D3D1C7" stroke="#5F5E5A" stroke-width="0.5"/>
<text font-size="12" fill="#444441" x="62" y="71" text-anchor="middle">Код ISO</text>
<rect x="108" y="52" width="180" height="28" rx="4" fill="#D3D1C7" stroke="#5F5E5A" stroke-width="0.5"/>
<text font-size="12" fill="#444441" x="198" y="71" text-anchor="middle">Язык</text>
<rect x="296" y="52" width="180" height="28" rx="4" fill="#D3D1C7" stroke="#5F5E5A" stroke-width="0.5"/>
<text font-size="12" fill="#444441" x="386" y="71" text-anchor="middle">Самоназвание</text>
<rect x="484" y="52" width="172" height="28" rx="4" fill="#D3D1C7" stroke="#5F5E5A" stroke-width="0.5"/>
<text font-size="12" fill="#444441" x="570" y="71" text-anchor="middle">Дизайн</text>
<!-- alt -->
<rect x="24" y="86" width="76" height="38" rx="4" fill="#E1F5EE" stroke="#0F6E56" stroke-width="0.5"/>
<text font-size="14" font-weight="500" fill="#085041" x="62" y="110" text-anchor="middle">alt</text>
<rect x="108" y="86" width="180" height="38" rx="4" fill="#E1F5EE" stroke="#0F6E56" stroke-width="0.5"/>
<text font-size="14" font-weight="500" fill="#085041" x="198" y="103" text-anchor="middle">Алтайский</text>
<text font-size="11" fill="#085041" x="198" y="117" text-anchor="middle">Тюркские</text>
<rect x="296" y="86" width="180" height="38" rx="4" fill="#E1F5EE" stroke="#0F6E56" stroke-width="0.5"/>
<text font-size="12" fill="#085041" x="386" y="109" text-anchor="middle">Алтай</text>
<rect x="484" y="86" width="172" height="38" rx="4" fill="#E1F5EE" stroke="#0F6E56" stroke-width="0.5"/>
<text font-size="11" fill="#085041" x="570" y="103" text-anchor="middle">3-ряда, 4-ряда,</text>
<text font-size="11" fill="#085041" x="570" y="117" text-anchor="middle">лонгпресс, МакОС</text>
<!-- ava -->
<rect x="24" y="128" width="76" height="38" rx="4" fill="#E6F1FB" stroke="#185FA5" stroke-width="0.5"/>
<text font-size="14" font-weight="500" fill="#0C447C" x="62" y="152" text-anchor="middle">ava</text>
<rect x="108" y="128" width="180" height="38" rx="4" fill="#E6F1FB" stroke="#185FA5" stroke-width="0.5"/>
<text font-size="14" font-weight="500" fill="#0C447C" x="198" y="145" text-anchor="middle">Аварский</text>
<text font-size="11" fill="#0C447C" x="198" y="159" text-anchor="middle">Кавказские</text>
<rect x="296" y="128" width="180" height="38" rx="4" fill="#E6F1FB" stroke="#185FA5" stroke-width="0.5"/>
<text font-size="12" fill="#0C447C" x="386" y="151" text-anchor="middle">Авар</text>
<rect x="484" y="128" width="172" height="38" rx="4" fill="#E6F1FB" stroke="#185FA5" stroke-width="0.5"/>
<text font-size="11" fill="#0C447C" x="570" y="145" text-anchor="middle">3-ряда, 4-ряда,</text>
<text font-size="11" fill="#0C447C" x="570" y="159" text-anchor="middle">лонгпресс, МакОС</text>
<!-- bak -->
<rect x="24" y="170" width="76" height="38" rx="4" fill="#EEEDFE" stroke="#534AB7" stroke-width="0.5"/>
<text font-size="14" font-weight="500" fill="#3C3489" x="62" y="194" text-anchor="middle">bak</text>
<rect x="108" y="170" width="180" height="38" rx="4" fill="#EEEDFE" stroke="#534AB7" stroke-width="0.5"/>
<text font-size="14" font-weight="500" fill="#3C3489" x="198" y="187" text-anchor="middle">Башкирский</text>
<text font-size="11" fill="#3C3489" x="198" y="201" text-anchor="middle">Тюркские</text>
<rect x="296" y="170" width="180" height="38" rx="4" fill="#EEEDFE" stroke="#534AB7" stroke-width="0.5"/>
<text font-size="12" fill="#3C3489" x="386" y="193" text-anchor="middle">Башҡортса</text>
<rect x="484" y="170" width="172" height="38" rx="4" fill="#EEEDFE" stroke="#534AB7" stroke-width="0.5"/>
<text font-size="11" fill="#3C3489" x="570" y="187" text-anchor="middle">3-ряда, 4-ряда,</text>
<text font-size="11" fill="#3C3489" x="570" y="201" text-anchor="middle">лонгпресс, МакОС</text>
<!-- bua -->
<rect x="24" y="212" width="76" height="38" rx="4" fill="#FAEEDA" stroke="#854F0B" stroke-width="0.5"/>
<text font-size="14" font-weight="500" fill="#633806" x="62" y="236" text-anchor="middle">bua</text>
<rect x="108" y="212" width="180" height="38" rx="4" fill="#FAEEDA" stroke="#854F0B" stroke-width="0.5"/>
<text font-size="14" font-weight="500" fill="#633806" x="198" y="229" text-anchor="middle">Бурятский</text>
<text font-size="11" fill="#633806" x="198" y="243" text-anchor="middle">Монгольские</text>
<rect x="296" y="212" width="180" height="38" rx="4" fill="#FAEEDA" stroke="#854F0B" stroke-width="0.5"/>
<text font-size="12" fill="#633806" x="386" y="235" text-anchor="middle">Буряад</text>
<rect x="484" y="212" width="172" height="38" rx="4" fill="#FAEEDA" stroke="#854F0B" stroke-width="0.5"/>
<text font-size="11" fill="#633806" x="570" y="235" text-anchor="middle">3-ряда, лонгпресс, МакОС</text>
<!-- chv -->
<rect x="24" y="254" width="76" height="38" rx="4" fill="#FAECE7" stroke="#993C1D" stroke-width="0.5"/>
<text font-size="14" font-weight="500" fill="#712B13" x="62" y="278" text-anchor="middle">chv</text>
<rect x="108" y="254" width="180" height="38" rx="4" fill="#FAECE7" stroke="#993C1D" stroke-width="0.5"/>
<text font-size="14" font-weight="500" fill="#712B13" x="198" y="271" text-anchor="middle">Чувашский</text>
<text font-size="11" fill="#712B13" x="198" y="285" text-anchor="middle">Тюркские</text>
<rect x="296" y="254" width="180" height="38" rx="4" fill="#FAECE7" stroke="#993C1D" stroke-width="0.5"/>
<text font-size="12" fill="#712B13" x="386" y="277" text-anchor="middle">Чӑваш (Apple)</text>
<rect x="484" y="254" width="172" height="38" rx="4" fill="#FAECE7" stroke="#993C1D" stroke-width="0.5"/>
<text font-size="11" fill="#712B13" x="570" y="271" text-anchor="middle">3-ряда, 4-ряда,</text>
<text font-size="11" fill="#712B13" x="570" y="285" text-anchor="middle">лонгпресс, МакОС</text>
<!-- gag -->
<rect x="24" y="296" width="76" height="38" rx="4" fill="#EAF3DE" stroke="#3B6D11" stroke-width="0.5"/>
<text font-size="14" font-weight="500" fill="#27500A" x="62" y="320" text-anchor="middle">gag</text>
<rect x="108" y="296" width="180" height="38" rx="4" fill="#EAF3DE" stroke="#3B6D11" stroke-width="0.5"/>
<text font-size="14" font-weight="500" fill="#27500A" x="198" y="313" text-anchor="middle">Гагаузский</text>
<text font-size="11" fill="#27500A" x="198" y="327" text-anchor="middle">Тюркские</text>
<rect x="296" y="296" width="180" height="38" rx="4" fill="#EAF3DE" stroke="#3B6D11" stroke-width="0.5"/>
<text font-size="12" fill="#27500A" x="386" y="319" text-anchor="middle">Gagauz dili</text>
<rect x="484" y="296" width="172" height="38" rx="4" fill="#EAF3DE" stroke="#3B6D11" stroke-width="0.5"/>
<text font-size="11" fill="#27500A" x="570" y="319" text-anchor="middle">3-ряда, лонгпресс, МакОС</text>
<!-- gld -->
<rect x="24" y="338" width="76" height="38" rx="4" fill="#FBEAF0" stroke="#993556" stroke-width="0.5"/>
<text font-size="14" font-weight="500" fill="#72243E" x="62" y="362" text-anchor="middle">gld</text>
<rect x="108" y="338" width="180" height="38" rx="4" fill="#FBEAF0" stroke="#993556" stroke-width="0.5"/>
<text font-size="14" font-weight="500" fill="#72243E" x="198" y="355" text-anchor="middle">Нанайский</text>
<text font-size="11" fill="#72243E" x="198" y="369" text-anchor="middle">Тунгусо-маньчжурские</text>
<rect x="296" y="338" width="180" height="38" rx="4" fill="#FBEAF0" stroke="#993556" stroke-width="0.5"/>
<text font-size="12" fill="#72243E" x="386" y="361" text-anchor="middle">На̄най</text>
<rect x="484" y="338" width="172" height="38" rx="4" fill="#FBEAF0" stroke="#993556" stroke-width="0.5"/>
<text font-size="11" fill="#72243E" x="570" y="355" text-anchor="middle">3-ряда, 4-ряда,</text>
<text font-size="11" fill="#72243E" x="570" y="369" text-anchor="middle">лонгпресс, МакОС</text>
<!-- kjh -->
<rect x="24" y="380" width="76" height="38" rx="4" fill="#F1EFE8" stroke="#5F5E5A" stroke-width="0.5"/>
<text font-size="14" font-weight="500" fill="#444441" x="62" y="404" text-anchor="middle">kjh</text>
<rect x="108" y="380" width="180" height="38" rx="4" fill="#F1EFE8" stroke="#5F5E5A" stroke-width="0.5"/>
<text font-size="14" font-weight="500" fill="#444441" x="198" y="397" text-anchor="middle">Хакасский</text>
<text font-size="11" fill="#444441" x="198" y="411" text-anchor="middle">Тюркские</text>
<rect x="296" y="380" width="180" height="38" rx="4" fill="#F1EFE8" stroke="#5F5E5A" stroke-width="0.5"/>
<text font-size="12" fill="#444441" x="386" y="403" text-anchor="middle">Хакас</text>
<rect x="484" y="380" width="172" height="38" rx="4" fill="#F1EFE8" stroke="#5F5E5A" stroke-width="0.5"/>
<text font-size="11" fill="#444441" x="570" y="397" text-anchor="middle">3-ряда, 4-ряда,</text>
<text font-size="11" fill="#444441" x="570" y="411" text-anchor="middle">лонгпресс, МакОС</text>
<!-- kom -->
<rect x="24" y="422" width="76" height="38" rx="4" fill="#E1F5EE" stroke="#0F6E56" stroke-width="0.5"/>
<text font-size="14" font-weight="500" fill="#085041" x="62" y="446" text-anchor="middle">kom</text>
<rect x="108" y="422" width="180" height="38" rx="4" fill="#E1F5EE" stroke="#0F6E56" stroke-width="0.5"/>
<text font-size="14" font-weight="500" fill="#085041" x="198" y="439" text-anchor="middle">Коми</text>
<text font-size="11" fill="#085041" x="198" y="453" text-anchor="middle">Уральские</text>
<rect x="296" y="422" width="180" height="38" rx="4" fill="#E1F5EE" stroke="#0F6E56" stroke-width="0.5"/>
<text font-size="12" fill="#085041" x="386" y="445" text-anchor="middle">Коми</text>
<rect x="484" y="422" width="172" height="38" rx="4" fill="#E1F5EE" stroke="#0F6E56" stroke-width="0.5"/>
<text font-size="11" fill="#085041" x="570" y="439" text-anchor="middle">3-ряда, 4-ряда,</text>
<text font-size="11" fill="#085041" x="570" y="453" text-anchor="middle">лонгпресс, МакОС</text>
<!-- oss -->
<rect x="24" y="464" width="76" height="38" rx="4" fill="#E6F1FB" stroke="#185FA5" stroke-width="0.5"/>
<text font-size="14" font-weight="500" fill="#0C447C" x="62" y="488" text-anchor="middle">oss</text>
<rect x="108" y="464" width="180" height="38" rx="4" fill="#E6F1FB" stroke="#185FA5" stroke-width="0.5"/>
<text font-size="14" font-weight="500" fill="#0C447C" x="198" y="481" text-anchor="middle">Осетинский</text>
<text font-size="11" fill="#0C447C" x="198" y="495" text-anchor="middle">Иранские</text>
<rect x="296" y="464" width="180" height="38" rx="4" fill="#E6F1FB" stroke="#185FA5" stroke-width="0.5"/>
<text font-size="12" fill="#0C447C" x="386" y="487" text-anchor="middle">Ирон ӕвзаг</text>
<rect x="484" y="464" width="172" height="38" rx="4" fill="#E6F1FB" stroke="#185FA5" stroke-width="0.5"/>
<text font-size="11" fill="#0C447C" x="570" y="487" text-anchor="middle">3-ряда, лонгпресс, МакОС</text>
<!-- rus -->
<rect x="24" y="506" width="76" height="38" rx="4" fill="#EEEDFE" stroke="#534AB7" stroke-width="0.5"/>
<text font-size="14" font-weight="500" fill="#3C3489" x="62" y="530" text-anchor="middle">rus</text>
<rect x="108" y="506" width="180" height="38" rx="4" fill="#EEEDFE" stroke="#534AB7" stroke-width="0.5"/>
<text font-size="14" font-weight="500" fill="#3C3489" x="198" y="523" text-anchor="middle">Русский</text>
<text font-size="11" fill="#3C3489" x="198" y="537" text-anchor="middle">Славянские</text>
<rect x="296" y="506" width="180" height="38" rx="4" fill="#EEEDFE" stroke="#534AB7" stroke-width="0.5"/>
<text font-size="12" fill="#3C3489" x="386" y="529" text-anchor="middle">Русский</text>
<rect x="484" y="506" width="172" height="38" rx="4" fill="#EEEDFE" stroke="#534AB7" stroke-width="0.5"/>
<text font-size="11" fill="#3C3489" x="570" y="529" text-anchor="middle">3-ряда, лонгпресс, МакОС</text>
<!-- tat -->
<rect x="24" y="548" width="76" height="38" rx="4" fill="#FAEEDA" stroke="#854F0B" stroke-width="0.5"/>
<text font-size="14" font-weight="500" fill="#633806" x="62" y="572" text-anchor="middle">tat</text>
<rect x="108" y="548" width="180" height="38" rx="4" fill="#FAEEDA" stroke="#854F0B" stroke-width="0.5"/>
<text font-size="14" font-weight="500" fill="#633806" x="198" y="565" text-anchor="middle">Татарский</text>
<text font-size="11" fill="#633806" x="198" y="579" text-anchor="middle">Тюркские</text>
<rect x="296" y="548" width="180" height="38" rx="4" fill="#FAEEDA" stroke="#854F0B" stroke-width="0.5"/>
<text font-size="12" fill="#633806" x="386" y="571" text-anchor="middle">Татарча</text>
<rect x="484" y="548" width="172" height="38" rx="4" fill="#FAEEDA" stroke="#854F0B" stroke-width="0.5"/>
<text font-size="11" fill="#633806" x="570" y="571" text-anchor="middle">3-ряда, лонгпресс, МакОС</text>
<!-- tle -->
<rect x="24" y="590" width="76" height="38" rx="4" fill="#FAECE7" stroke="#993C1D" stroke-width="0.5"/>
<text font-size="14" font-weight="500" fill="#712B13" x="62" y="614" text-anchor="middle">tle</text>
<rect x="108" y="590" width="180" height="38" rx="4" fill="#FAECE7" stroke="#993C1D" stroke-width="0.5"/>
<text font-size="14" font-weight="500" fill="#712B13" x="198" y="607" text-anchor="middle">Телеутский</text>
<text font-size="11" fill="#712B13" x="198" y="621" text-anchor="middle">Тюркские</text>
<rect x="296" y="590" width="180" height="38" rx="4" fill="#FAECE7" stroke="#993C1D" stroke-width="0.5"/>
<text font-size="12" fill="#712B13" x="386" y="613" text-anchor="middle">Телеут</text>
<rect x="484" y="590" width="172" height="38" rx="4" fill="#FAECE7" stroke="#993C1D" stroke-width="0.5"/>
<text font-size="11" fill="#712B13" x="570" y="607" text-anchor="middle">3-ряда, 4-ряда,</text>
<text font-size="11" fill="#712B13" x="570" y="621" text-anchor="middle">лонгпресс, МакОС</text>
<!-- tyv -->
<rect x="24" y="632" width="76" height="38" rx="4" fill="#EAF3DE" stroke="#3B6D11" stroke-width="0.5"/>
<text font-size="14" font-weight="500" fill="#27500A" x="62" y="656" text-anchor="middle">tyv</text>
<rect x="108" y="632" width="180" height="38" rx="4" fill="#EAF3DE" stroke="#3B6D11" stroke-width="0.5"/>
<text font-size="14" font-weight="500" fill="#27500A" x="198" y="649" text-anchor="middle">Тувинский</text>
<text font-size="11" fill="#27500A" x="198" y="663" text-anchor="middle">Тюркские</text>
<rect x="296" y="632" width="180" height="38" rx="4" fill="#EAF3DE" stroke="#3B6D11" stroke-width="0.5"/>
<text font-size="12" fill="#27500A" x="386" y="655" text-anchor="middle">Тыва</text>
<rect x="484" y="632" width="172" height="38" rx="4" fill="#EAF3DE" stroke="#3B6D11" stroke-width="0.5"/>
<text font-size="11" fill="#27500A" x="570" y="649" text-anchor="middle">3-ряда, 4-ряда,</text>
<text font-size="11" fill="#27500A" x="570" y="663" text-anchor="middle">лонгпресс, МакОС</text>
<!-- ulc -->
<rect x="24" y="674" width="76" height="38" rx="4" fill="#FBEAF0" stroke="#993556" stroke-width="0.5"/>
<text font-size="14" font-weight="500" fill="#72243E" x="62" y="698" text-anchor="middle">ulc</text>
<rect x="108" y="674" width="180" height="38" rx="4" fill="#FBEAF0" stroke="#993556" stroke-width="0.5"/>
<text font-size="14" font-weight="500" fill="#72243E" x="198" y="691" text-anchor="middle">Ульчский</text>
<text font-size="11" fill="#72243E" x="198" y="705" text-anchor="middle">Тунгусо-маньчжурские</text>
<rect x="296" y="674" width="180" height="38" rx="4" fill="#FBEAF0" stroke="#993556" stroke-width="0.5"/>
<text font-size="12" fill="#72243E" x="386" y="697" text-anchor="middle">Нāн'и хэсэни</text>
<rect x="484" y="674" width="172" height="38" rx="4" fill="#FBEAF0" stroke="#993556" stroke-width="0.5"/>
<text font-size="11" fill="#72243E" x="570" y="691" text-anchor="middle">3-ряда, 4-ряда,</text>
<text font-size="11" fill="#72243E" x="570" y="705" text-anchor="middle">лонгпресс, МакОС</text>
<!-- xal -->
<rect x="24" y="716" width="76" height="38" rx="4" fill="#F1EFE8" stroke="#5F5E5A" stroke-width="0.5"/>
<text font-size="14" font-weight="500" fill="#444441" x="62" y="740" text-anchor="middle">xal</text>
<rect x="108" y="716" width="180" height="38" rx="4" fill="#F1EFE8" stroke="#5F5E5A" stroke-width="0.5"/>
<text font-size="14" font-weight="500" fill="#444441" x="198" y="733" text-anchor="middle">Калмыцкий</text>
<text font-size="11" fill="#444441" x="198" y="747" text-anchor="middle">Монгольские</text>
<rect x="296" y="716" width="180" height="38" rx="4" fill="#F1EFE8" stroke="#5F5E5A" stroke-width="0.5"/>
<text font-size="12" fill="#444441" x="386" y="739" text-anchor="middle">Хальмг</text>
<rect x="484" y="716" width="172" height="38" rx="4" fill="#F1EFE8" stroke="#5F5E5A" stroke-width="0.5"/>
<text font-size="11" fill="#444441" x="570" y="739" text-anchor="middle">3-ряда, лонгпресс, МакОС</text>
<!-- xdq -->
<rect x="24" y="758" width="76" height="38" rx="4" fill="#E1F5EE" stroke="#0F6E56" stroke-width="0.5"/>
<text font-size="14" font-weight="500" fill="#085041" x="62" y="782" text-anchor="middle">xdq</text>
<rect x="108" y="758" width="180" height="38" rx="4" fill="#E1F5EE" stroke="#0F6E56" stroke-width="0.5"/>
<text font-size="14" font-weight="500" fill="#085041" x="198" y="775" text-anchor="middle">Кайтагский</text>
<text font-size="11" fill="#085041" x="198" y="789" text-anchor="middle">Кавказские</text>
<rect x="296" y="758" width="180" height="38" rx="4" fill="#E1F5EE" stroke="#0F6E56" stroke-width="0.5"/>
<text font-size="12" fill="#085041" x="386" y="781" text-anchor="middle">Хайдаҡӏла</text>
<rect x="484" y="758" width="172" height="38" rx="4" fill="#E1F5EE" stroke="#0F6E56" stroke-width="0.5"/>
<text font-size="11" fill="#085041" x="570" y="781" text-anchor="middle">3-ряда, лонгпресс, МакОС</text>
<!-- ykt -->
<rect x="24" y="800" width="76" height="38" rx="4" fill="#E6F1FB" stroke="#185FA5" stroke-width="0.5"/>
<text font-size="14" font-weight="500" fill="#0C447C" x="62" y="824" text-anchor="middle">ykt</text>
<rect x="108" y="800" width="180" height="38" rx="4" fill="#E6F1FB" stroke="#185FA5" stroke-width="0.5"/>
<text font-size="14" font-weight="500" fill="#0C447C" x="198" y="817" text-anchor="middle">Саха</text>
<text font-size="11" fill="#0C447C" x="198" y="831" text-anchor="middle">Тюркские</text>
<rect x="296" y="800" width="180" height="38" rx="4" fill="#E6F1FB" stroke="#185FA5" stroke-width="0.5"/>
<text font-size="12" fill="#0C447C" x="386" y="823" text-anchor="middle">Саха</text>
<rect x="484" y="800" width="172" height="38" rx="4" fill="#E6F1FB" stroke="#185FA5" stroke-width="0.5"/>
<text font-size="11" fill="#0C447C" x="570" y="817" text-anchor="middle">3-ряда, 4-ряда,</text>
<text font-size="11" fill="#0C447C" x="570" y="831" text-anchor="middle">лонгпресс, МакОС</text>
</svg>