<svg width="100%" viewBox="0 0 680 584" xmlns="http://www.w3.org/2000/svg" font-family="sans-serif">

<text font-size="16" font-weight="500" fill="#1a1a1a" x="340" y="36" text-anchor="middle">Languages in ios-system-keyboard repository</text>

<!-- Header -->
<rect x="24" y="52" width="76" height="28" rx="4" fill="#D3D1C7" stroke="#5F5E5A" stroke-width="0.5"/>
<text font-size="12" fill="#444441" x="62" y="71" text-anchor="middle">ISO code</text>
<rect x="108" y="52" width="180" height="28" rx="4" fill="#D3D1C7" stroke="#5F5E5A" stroke-width="0.5"/>
<text font-size="12" fill="#444441" x="198" y="71" text-anchor="middle">Language</text>
<rect x="296" y="52" width="180" height="28" rx="4" fill="#D3D1C7" stroke="#5F5E5A" stroke-width="0.5"/>
<text font-size="12" fill="#444441" x="386" y="71" text-anchor="middle">Native name</text>
<rect x="484" y="52" width="172" height="28" rx="4" fill="#D3D1C7" stroke="#5F5E5A" stroke-width="0.5"/>
<text font-size="12" fill="#444441" x="570" y="71" text-anchor="middle">Layouts</text>

<!-- tyv -->
<rect x="24" y="86" width="76" height="40" rx="4" fill="#E1F5EE" stroke="#0F6E56" stroke-width="0.5"/>
<text font-size="14" font-weight="500" fill="#085041" x="62" y="111" text-anchor="middle">tyv</text>
<rect x="108" y="86" width="180" height="40" rx="4" fill="#E1F5EE" stroke="#0F6E56" stroke-width="0.5"/>
<text font-size="14" font-weight="500" fill="#085041" x="198" y="106" text-anchor="middle">Tuvan</text>
<text font-size="12" fill="#085041" x="198" y="120" text-anchor="middle">Turkic language</text>
<rect x="296" y="86" width="180" height="40" rx="4" fill="#E1F5EE" stroke="#0F6E56" stroke-width="0.5"/>
<text font-size="12" fill="#085041" x="386" y="111" text-anchor="middle">Тыва дыл</text>
<rect x="484" y="86" width="172" height="40" rx="4" fill="#E1F5EE" stroke="#0F6E56" stroke-width="0.5"/>
<text font-size="12" fill="#085041" x="570" y="106" text-anchor="middle">3-row, 4-row,</text>
<text font-size="12" fill="#085041" x="570" y="120" text-anchor="middle">longpress, macOS</text>

<!-- rus -->
<rect x="24" y="132" width="76" height="36" rx="4" fill="#E6F1FB" stroke="#185FA5" stroke-width="0.5"/>
<text font-size="14" font-weight="500" fill="#0C447C" x="62" y="155" text-anchor="middle">rus</text>
<rect x="108" y="132" width="180" height="36" rx="4" fill="#E6F1FB" stroke="#185FA5" stroke-width="0.5"/>
<text font-size="14" font-weight="500" fill="#0C447C" x="198" y="150" text-anchor="middle">Russian</text>
<text font-size="12" fill="#0C447C" x="198" y="163" text-anchor="middle">Standard RU layout</text>
<rect x="296" y="132" width="180" height="36" rx="4" fill="#E6F1FB" stroke="#185FA5" stroke-width="0.5"/>
<text font-size="12" fill="#0C447C" x="386" y="155" text-anchor="middle">Русский</text>
<rect x="484" y="132" width="172" height="36" rx="4" fill="#E6F1FB" stroke="#185FA5" stroke-width="0.5"/>
<text font-size="12" fill="#0C447C" x="570" y="155" text-anchor="middle">3-row, longpress, macOS</text>

<!-- chv -->
<rect x="24" y="174" width="76" height="40" rx="4" fill="#EEEDFE" stroke="#534AB7" stroke-width="0.5"/>
<text font-size="14" font-weight="500" fill="#3C3489" x="62" y="199" text-anchor="middle">chv</text>
<rect x="108" y="174" width="180" height="40" rx="4" fill="#EEEDFE" stroke="#534AB7" stroke-width="0.5"/>
<text font-size="14" font-weight="500" fill="#3C3489" x="198" y="194" text-anchor="middle">Chuvash</text>
<text font-size="12" fill="#3C3489" x="198" y="208" text-anchor="middle">5 layout variants!</text>
<rect x="296" y="174" width="180" height="40" rx="4" fill="#EEEDFE" stroke="#534AB7" stroke-width="0.5"/>
<text font-size="12" fill="#3C3489" x="386" y="199" text-anchor="middle">Чӑваш чӗлхи</text>
<rect x="484" y="174" width="172" height="40" rx="4" fill="#EEEDFE" stroke="#534AB7" stroke-width="0.5"/>
<text font-size="12" fill="#3C3489" x="570" y="194" text-anchor="middle">Apple, Standard, Google,</text>
<text font-size="12" fill="#3C3489" x="570" y="208" text-anchor="middle">Yandex, Ergonomic</text>

<!-- bak -->
<rect x="24" y="220" width="76" height="40" rx="4" fill="#FAEEDA" stroke="#854F0B" stroke-width="0.5"/>
<text font-size="14" font-weight="500" fill="#633806" x="62" y="245" text-anchor="middle">bak</text>
<rect x="108" y="220" width="180" height="40" rx="4" fill="#FAEEDA" stroke="#854F0B" stroke-width="0.5"/>
<text font-size="14" font-weight="500" fill="#633806" x="198" y="240" text-anchor="middle">Bashkir</text>
<text font-size="12" fill="#633806" x="198" y="254" text-anchor="middle">3 layout variants</text>
<rect x="296" y="220" width="180" height="40" rx="4" fill="#FAEEDA" stroke="#854F0B" stroke-width="0.5"/>
<text font-size="12" fill="#633806" x="386" y="245" text-anchor="middle">Башҡорт теле</text>
<rect x="484" y="220" width="172" height="40" rx="4" fill="#FAEEDA" stroke="#854F0B" stroke-width="0.5"/>
<text font-size="12" fill="#633806" x="570" y="240" text-anchor="middle">3-row, 3-row-rus,</text>
<text font-size="12" fill="#633806" x="570" y="254" text-anchor="middle">4-row, macOS, macOS-PC</text>

<!-- tat -->
<rect x="24" y="266" width="76" height="40" rx="4" fill="#FAECE7" stroke="#993C1D" stroke-width="0.5"/>
<text font-size="14" font-weight="500" fill="#712B13" x="62" y="291" text-anchor="middle">tat</text>
<rect x="108" y="266" width="180" height="40" rx="4" fill="#FAECE7" stroke="#993C1D" stroke-width="0.5"/>
<text font-size="14" font-weight="500" fill="#712B13" x="198" y="286" text-anchor="middle">Tatar</text>
<text font-size="12" fill="#712B13" x="198" y="300" text-anchor="middle">Has Russian base layout</text>
<rect x="296" y="266" width="180" height="40" rx="4" fill="#FAECE7" stroke="#993C1D" stroke-width="0.5"/>
<text font-size="12" fill="#712B13" x="386" y="291" text-anchor="middle">Татарча</text>
<rect x="484" y="266" width="172" height="40" rx="4" fill="#FAECE7" stroke="#993C1D" stroke-width="0.5"/>
<text font-size="12" fill="#712B13" x="570" y="286" text-anchor="middle">3-row, 3-row-rus,</text>
<text font-size="12" fill="#712B13" x="570" y="300" text-anchor="middle">macOS, macOS-PC</text>

<!-- kjh -->
<rect x="24" y="312" width="76" height="36" rx="4" fill="#EAF3DE" stroke="#3B6D11" stroke-width="0.5"/>
<text font-size="14" font-weight="500" fill="#27500A" x="62" y="335" text-anchor="middle">kjh</text>
<rect x="108" y="312" width="180" height="36" rx="4" fill="#EAF3DE" stroke="#3B6D11" stroke-width="0.5"/>
<text font-size="14" font-weight="500" fill="#27500A" x="198" y="330" text-anchor="middle">Khakas</text>
<text font-size="12" fill="#27500A" x="198" y="344" text-anchor="middle">Has Russian base layout</text>
<rect x="296" y="312" width="180" height="36" rx="4" fill="#EAF3DE" stroke="#3B6D11" stroke-width="0.5"/>
<text font-size="12" fill="#27500A" x="386" y="335" text-anchor="middle">Хакас тілі</text>
<rect x="484" y="312" width="172" height="36" rx="4" fill="#EAF3DE" stroke="#3B6D11" stroke-width="0.5"/>
<text font-size="12" fill="#27500A" x="570" y="335" text-anchor="middle">3-row, 4-row, macOS</text>

<!-- ava -->
<rect x="24" y="354" width="76" height="36" rx="4" fill="#FBEAF0" stroke="#993556" stroke-width="0.5"/>
<text font-size="14" font-weight="500" fill="#72243E" x="62" y="377" text-anchor="middle">ava</text>
<rect x="108" y="354" width="180" height="36" rx="4" fill="#FBEAF0" stroke="#993556" stroke-width="0.5"/>
<text font-size="14" font-weight="500" fill="#72243E" x="198" y="372" text-anchor="middle">Avar</text>
<text font-size="12" fill="#72243E" x="198" y="386" text-anchor="middle">Caucasian language</text>
<rect x="296" y="354" width="180" height="36" rx="4" fill="#FBEAF0" stroke="#993556" stroke-width="0.5"/>
<text font-size="12" fill="#72243E" x="386" y="377" text-anchor="middle">Магӏарул мацӏ</text>
<rect x="484" y="354" width="172" height="36" rx="4" fill="#FBEAF0" stroke="#993556" stroke-width="0.5"/>
<text font-size="12" fill="#72243E" x="570" y="377" text-anchor="middle">3-row, 4-row, macOS</text>

<!-- oss -->
<rect x="24" y="396" width="76" height="36" rx="4" fill="#F1EFE8" stroke="#5F5E5A" stroke-width="0.5"/>
<text font-size="14" font-weight="500" fill="#444441" x="62" y="419" text-anchor="middle">oss</text>
<rect x="108" y="396" width="180" height="36" rx="4" fill="#F1EFE8" stroke="#5F5E5A" stroke-width="0.5"/>
<text font-size="14" font-weight="500" fill="#444441" x="198" y="414" text-anchor="middle">Ossetic</text>
<text font-size="12" fill="#444441" x="198" y="428" text-anchor="middle">Ossetic language foundation</text>
<rect x="296" y="396" width="180" height="36" rx="4" fill="#F1EFE8" stroke="#5F5E5A" stroke-width="0.5"/>
<text font-size="12" fill="#444441" x="386" y="419" text-anchor="middle">Ирон æвзаг</text>
<rect x="484" y="396" width="172" height="36" rx="4" fill="#F1EFE8" stroke="#5F5E5A" stroke-width="0.5"/>
<text font-size="12" fill="#444441" x="570" y="419" text-anchor="middle">3-row, longpress, macOS</text>

<!-- kom -->
<rect x="24" y="438" width="76" height="36" rx="4" fill="#E1F5EE" stroke="#0F6E56" stroke-width="0.5"/>
<text font-size="14" font-weight="500" fill="#085041" x="62" y="461" text-anchor="middle">kom</text>
<rect x="108" y="438" width="180" height="36" rx="4" fill="#E1F5EE" stroke="#0F6E56" stroke-width="0.5"/>
<text font-size="14" font-weight="500" fill="#085041" x="198" y="456" text-anchor="middle">Komi</text>
<text font-size="12" fill="#085041" x="198" y="470" text-anchor="middle">Uralic language family</text>
<rect x="296" y="438" width="180" height="36" rx="4" fill="#E1F5EE" stroke="#0F6E56" stroke-width="0.5"/>
<text font-size="12" fill="#085041" x="386" y="461" text-anchor="middle">Коми кыв</text>
<rect x="484" y="438" width="172" height="36" rx="4" fill="#E1F5EE" stroke="#0F6E56" stroke-width="0.5"/>
<text font-size="12" fill="#085041" x="570" y="461" text-anchor="middle">3-row, 4-row, macOS</text>

<!-- xal -->
<rect x="24" y="480" width="76" height="36" rx="4" fill="#FAEEDA" stroke="#854F0B" stroke-width="0.5"/>
<text font-size="14" font-weight="500" fill="#633806" x="62" y="503" text-anchor="middle">xal</text>
<rect x="108" y="480" width="180" height="36" rx="4" fill="#FAEEDA" stroke="#854F0B" stroke-width="0.5"/>
<text font-size="14" font-weight="500" fill="#633806" x="198" y="498" text-anchor="middle">Kalmyk</text>
<text font-size="12" fill="#633806" x="198" y="512" text-anchor="middle">Mongolic language group</text>
<rect x="296" y="480" width="180" height="36" rx="4" fill="#FAEEDA" stroke="#854F0B" stroke-width="0.5"/>
<text font-size="12" fill="#633806" x="386" y="503" text-anchor="middle">Хальмг келн</text>
<rect x="484" y="480" width="172" height="36" rx="4" fill="#FAEEDA" stroke="#854F0B" stroke-width="0.5"/>
<text font-size="12" fill="#633806" x="570" y="503" text-anchor="middle">3-row, longpress, macOS</text>

<!-- xdq -->
<rect x="24" y="522" width="76" height="36" rx="4" fill="#FAECE7" stroke="#993C1D" stroke-width="0.5"/>
<text font-size="14" font-weight="500" fill="#712B13" x="62" y="545" text-anchor="middle">xdq</text>
<rect x="108" y="522" width="180" height="36" rx="4" fill="#FAECE7" stroke="#993C1D" stroke-width="0.5"/>
<text font-size="14" font-weight="500" fill="#712B13" x="198" y="540" text-anchor="middle">Kaitag</text>
<text font-size="12" fill="#712B13" x="198" y="554" text-anchor="middle">Dagestani language</text>
<rect x="296" y="522" width="180" height="36" rx="4" fill="#FAECE7" stroke="#993C1D" stroke-width="0.5"/>
<text font-size="12" fill="#712B13" x="386" y="545" text-anchor="middle">Хайдаҡӏла</text>
<rect x="484" y="522" width="172" height="36" rx="4" fill="#FAECE7" stroke="#993C1D" stroke-width="0.5"/>
<text font-size="12" fill="#712B13" x="570" y="545" text-anchor="middle">3-row, longpress, macOS</text>

</svg>
